<mxfile host="app.diagrams.net" modified="2023-08-26T00:39:23.209Z" agent="Mozilla/5.0 (Windows NT 10.0; Win64; x64) AppleWebKit/537.36 (KHTML, like Gecko) Chrome/116.0.0.0 Safari/537.36" etag="Zd-Naa_whYnR40H3WCqB" version="21.6.9" type="device">
  <diagram name="Página-1" id="885xE4FtZG9pR-V7uXVf">
    <mxGraphModel dx="2261" dy="790" grid="1" gridSize="10" guides="1" tooltips="1" connect="1" arrows="1" fold="1" page="1" pageScale="1" pageWidth="827" pageHeight="1169" math="0" shadow="0">
      <root>
        <mxCell id="0" />
        <mxCell id="1" parent="0" />
        <mxCell id="TOIAnvdH4Xo8za-mBCzt-1" value="Club" style="swimlane;fontStyle=1;align=center;verticalAlign=top;childLayout=stackLayout;horizontal=1;startSize=26;horizontalStack=0;resizeParent=1;resizeParentMax=0;resizeLast=0;collapsible=1;marginBottom=0;whiteSpace=wrap;html=1;" vertex="1" parent="1">
          <mxGeometry x="360" y="90" width="260" height="196" as="geometry" />
        </mxCell>
        <mxCell id="TOIAnvdH4Xo8za-mBCzt-2" value="- nombre : string" style="text;strokeColor=none;fillColor=none;align=left;verticalAlign=top;spacingLeft=4;spacingRight=4;overflow=hidden;rotatable=0;points=[[0,0.5],[1,0.5]];portConstraint=eastwest;whiteSpace=wrap;html=1;" vertex="1" parent="TOIAnvdH4Xo8za-mBCzt-1">
          <mxGeometry y="26" width="260" height="26" as="geometry" />
        </mxCell>
        <mxCell id="TOIAnvdH4Xo8za-mBCzt-18" value="- añoFundacion : int" style="text;strokeColor=none;fillColor=none;align=left;verticalAlign=top;spacingLeft=4;spacingRight=4;overflow=hidden;rotatable=0;points=[[0,0.5],[1,0.5]];portConstraint=eastwest;whiteSpace=wrap;html=1;" vertex="1" parent="TOIAnvdH4Xo8za-mBCzt-1">
          <mxGeometry y="52" width="260" height="26" as="geometry" />
        </mxCell>
        <mxCell id="TOIAnvdH4Xo8za-mBCzt-3" value="" style="line;strokeWidth=1;fillColor=none;align=left;verticalAlign=middle;spacingTop=-1;spacingLeft=3;spacingRight=3;rotatable=0;labelPosition=right;points=[];portConstraint=eastwest;strokeColor=inherit;" vertex="1" parent="TOIAnvdH4Xo8za-mBCzt-1">
          <mxGeometry y="78" width="260" height="8" as="geometry" />
        </mxCell>
        <mxCell id="TOIAnvdH4Xo8za-mBCzt-4" value="+ agregarEquipo ( equipo)&amp;nbsp; : equipo" style="text;strokeColor=none;fillColor=none;align=left;verticalAlign=top;spacingLeft=4;spacingRight=4;overflow=hidden;rotatable=0;points=[[0,0.5],[1,0.5]];portConstraint=eastwest;whiteSpace=wrap;html=1;" vertex="1" parent="TOIAnvdH4Xo8za-mBCzt-1">
          <mxGeometry y="86" width="260" height="32" as="geometry" />
        </mxCell>
        <mxCell id="TOIAnvdH4Xo8za-mBCzt-59" value="+ removerEquipo (equipo)&amp;nbsp;" style="text;strokeColor=none;fillColor=none;align=left;verticalAlign=top;spacingLeft=4;spacingRight=4;overflow=hidden;rotatable=0;points=[[0,0.5],[1,0.5]];portConstraint=eastwest;whiteSpace=wrap;html=1;" vertex="1" parent="TOIAnvdH4Xo8za-mBCzt-1">
          <mxGeometry y="118" width="260" height="26" as="geometry" />
        </mxCell>
        <mxCell id="TOIAnvdH4Xo8za-mBCzt-60" value="+ agregarEmpleado (empleado)" style="text;strokeColor=none;fillColor=none;align=left;verticalAlign=top;spacingLeft=4;spacingRight=4;overflow=hidden;rotatable=0;points=[[0,0.5],[1,0.5]];portConstraint=eastwest;whiteSpace=wrap;html=1;" vertex="1" parent="TOIAnvdH4Xo8za-mBCzt-1">
          <mxGeometry y="144" width="260" height="26" as="geometry" />
        </mxCell>
        <mxCell id="TOIAnvdH4Xo8za-mBCzt-61" value="+ removerEmpleado (empleado)" style="text;strokeColor=none;fillColor=none;align=left;verticalAlign=top;spacingLeft=4;spacingRight=4;overflow=hidden;rotatable=0;points=[[0,0.5],[1,0.5]];portConstraint=eastwest;whiteSpace=wrap;html=1;" vertex="1" parent="TOIAnvdH4Xo8za-mBCzt-1">
          <mxGeometry y="170" width="260" height="26" as="geometry" />
        </mxCell>
        <mxCell id="TOIAnvdH4Xo8za-mBCzt-8" value="Direccion" style="swimlane;fontStyle=1;align=center;verticalAlign=top;childLayout=stackLayout;horizontal=1;startSize=26;horizontalStack=0;resizeParent=1;resizeParentMax=0;resizeLast=0;collapsible=1;marginBottom=0;whiteSpace=wrap;html=1;" vertex="1" parent="1">
          <mxGeometry x="70" y="100" width="160" height="138" as="geometry" />
        </mxCell>
        <mxCell id="TOIAnvdH4Xo8za-mBCzt-16" value="- calle : string" style="text;strokeColor=none;fillColor=none;align=left;verticalAlign=top;spacingLeft=4;spacingRight=4;overflow=hidden;rotatable=0;points=[[0,0.5],[1,0.5]];portConstraint=eastwest;whiteSpace=wrap;html=1;" vertex="1" parent="TOIAnvdH4Xo8za-mBCzt-8">
          <mxGeometry y="26" width="160" height="26" as="geometry" />
        </mxCell>
        <mxCell id="TOIAnvdH4Xo8za-mBCzt-9" value="- altura : int" style="text;strokeColor=none;fillColor=none;align=left;verticalAlign=top;spacingLeft=4;spacingRight=4;overflow=hidden;rotatable=0;points=[[0,0.5],[1,0.5]];portConstraint=eastwest;whiteSpace=wrap;html=1;" vertex="1" parent="TOIAnvdH4Xo8za-mBCzt-8">
          <mxGeometry y="52" width="160" height="26" as="geometry" />
        </mxCell>
        <mxCell id="TOIAnvdH4Xo8za-mBCzt-17" value="- ciudad : string" style="text;strokeColor=none;fillColor=none;align=left;verticalAlign=top;spacingLeft=4;spacingRight=4;overflow=hidden;rotatable=0;points=[[0,0.5],[1,0.5]];portConstraint=eastwest;whiteSpace=wrap;html=1;" vertex="1" parent="TOIAnvdH4Xo8za-mBCzt-8">
          <mxGeometry y="78" width="160" height="26" as="geometry" />
        </mxCell>
        <mxCell id="TOIAnvdH4Xo8za-mBCzt-10" value="" style="line;strokeWidth=1;fillColor=none;align=left;verticalAlign=middle;spacingTop=-1;spacingLeft=3;spacingRight=3;rotatable=0;labelPosition=right;points=[];portConstraint=eastwest;strokeColor=inherit;" vertex="1" parent="TOIAnvdH4Xo8za-mBCzt-8">
          <mxGeometry y="104" width="160" height="8" as="geometry" />
        </mxCell>
        <mxCell id="TOIAnvdH4Xo8za-mBCzt-11" value="+ method(type): type" style="text;strokeColor=none;fillColor=none;align=left;verticalAlign=top;spacingLeft=4;spacingRight=4;overflow=hidden;rotatable=0;points=[[0,0.5],[1,0.5]];portConstraint=eastwest;whiteSpace=wrap;html=1;" vertex="1" parent="TOIAnvdH4Xo8za-mBCzt-8">
          <mxGeometry y="112" width="160" height="26" as="geometry" />
        </mxCell>
        <mxCell id="TOIAnvdH4Xo8za-mBCzt-19" value="enum Categoria" style="swimlane;fontStyle=0;childLayout=stackLayout;horizontal=1;startSize=26;fillColor=none;horizontalStack=0;resizeParent=1;resizeParentMax=0;resizeLast=0;collapsible=1;marginBottom=0;whiteSpace=wrap;html=1;" vertex="1" parent="1">
          <mxGeometry x="-220" y="100" width="140" height="104" as="geometry" />
        </mxCell>
        <mxCell id="TOIAnvdH4Xo8za-mBCzt-20" value="- PRIMERA" style="text;strokeColor=none;fillColor=none;align=left;verticalAlign=top;spacingLeft=4;spacingRight=4;overflow=hidden;rotatable=0;points=[[0,0.5],[1,0.5]];portConstraint=eastwest;whiteSpace=wrap;html=1;" vertex="1" parent="TOIAnvdH4Xo8za-mBCzt-19">
          <mxGeometry y="26" width="140" height="26" as="geometry" />
        </mxCell>
        <mxCell id="TOIAnvdH4Xo8za-mBCzt-21" value="- SEGUNDA" style="text;strokeColor=none;fillColor=none;align=left;verticalAlign=top;spacingLeft=4;spacingRight=4;overflow=hidden;rotatable=0;points=[[0,0.5],[1,0.5]];portConstraint=eastwest;whiteSpace=wrap;html=1;" vertex="1" parent="TOIAnvdH4Xo8za-mBCzt-19">
          <mxGeometry y="52" width="140" height="26" as="geometry" />
        </mxCell>
        <mxCell id="TOIAnvdH4Xo8za-mBCzt-22" value="- TERCERA" style="text;strokeColor=none;fillColor=none;align=left;verticalAlign=top;spacingLeft=4;spacingRight=4;overflow=hidden;rotatable=0;points=[[0,0.5],[1,0.5]];portConstraint=eastwest;whiteSpace=wrap;html=1;" vertex="1" parent="TOIAnvdH4Xo8za-mBCzt-19">
          <mxGeometry y="78" width="140" height="26" as="geometry" />
        </mxCell>
        <mxCell id="TOIAnvdH4Xo8za-mBCzt-27" value="Equipo" style="swimlane;fontStyle=1;align=center;verticalAlign=top;childLayout=stackLayout;horizontal=1;startSize=26;horizontalStack=0;resizeParent=1;resizeParentMax=0;resizeLast=0;collapsible=1;marginBottom=0;whiteSpace=wrap;html=1;" vertex="1" parent="1">
          <mxGeometry x="70" y="270" width="160" height="112" as="geometry" />
        </mxCell>
        <mxCell id="TOIAnvdH4Xo8za-mBCzt-87" value="+ item: attribute" style="text;strokeColor=none;fillColor=none;align=left;verticalAlign=top;spacingLeft=4;spacingRight=4;overflow=hidden;rotatable=0;points=[[0,0.5],[1,0.5]];portConstraint=eastwest;whiteSpace=wrap;html=1;" vertex="1" parent="TOIAnvdH4Xo8za-mBCzt-27">
          <mxGeometry y="26" width="160" height="26" as="geometry" />
        </mxCell>
        <mxCell id="TOIAnvdH4Xo8za-mBCzt-29" value="" style="line;strokeWidth=1;fillColor=none;align=left;verticalAlign=middle;spacingTop=-1;spacingLeft=3;spacingRight=3;rotatable=0;labelPosition=right;points=[];portConstraint=eastwest;strokeColor=inherit;" vertex="1" parent="TOIAnvdH4Xo8za-mBCzt-27">
          <mxGeometry y="52" width="160" height="8" as="geometry" />
        </mxCell>
        <mxCell id="TOIAnvdH4Xo8za-mBCzt-30" value="+ agregarJugador (jugador)" style="text;strokeColor=none;fillColor=none;align=left;verticalAlign=top;spacingLeft=4;spacingRight=4;overflow=hidden;rotatable=0;points=[[0,0.5],[1,0.5]];portConstraint=eastwest;whiteSpace=wrap;html=1;" vertex="1" parent="TOIAnvdH4Xo8za-mBCzt-27">
          <mxGeometry y="60" width="160" height="26" as="geometry" />
        </mxCell>
        <mxCell id="TOIAnvdH4Xo8za-mBCzt-58" value="+ removerJugador (jugador)" style="text;strokeColor=none;fillColor=none;align=left;verticalAlign=top;spacingLeft=4;spacingRight=4;overflow=hidden;rotatable=0;points=[[0,0.5],[1,0.5]];portConstraint=eastwest;whiteSpace=wrap;html=1;" vertex="1" parent="TOIAnvdH4Xo8za-mBCzt-27">
          <mxGeometry y="86" width="160" height="26" as="geometry" />
        </mxCell>
        <mxCell id="TOIAnvdH4Xo8za-mBCzt-82" style="edgeStyle=orthogonalEdgeStyle;rounded=0;orthogonalLoop=1;jettySize=auto;html=1;exitX=0.5;exitY=0;exitDx=0;exitDy=0;endArrow=blockThin;endFill=0;entryX=0.423;entryY=1.137;entryDx=0;entryDy=0;entryPerimeter=0;strokeWidth=1;endSize=13;" edge="1" parent="1" source="TOIAnvdH4Xo8za-mBCzt-32" target="TOIAnvdH4Xo8za-mBCzt-46">
          <mxGeometry relative="1" as="geometry">
            <mxPoint x="-169.99999999999977" y="360" as="targetPoint" />
            <Array as="points">
              <mxPoint x="-70" y="450" />
              <mxPoint x="-172" y="450" />
              <mxPoint x="-172" y="354" />
            </Array>
          </mxGeometry>
        </mxCell>
        <mxCell id="TOIAnvdH4Xo8za-mBCzt-32" value="Jugador" style="swimlane;fontStyle=1;align=center;verticalAlign=top;childLayout=stackLayout;horizontal=1;startSize=26;horizontalStack=0;resizeParent=1;resizeParentMax=0;resizeLast=0;collapsible=1;marginBottom=0;whiteSpace=wrap;html=1;" vertex="1" parent="1">
          <mxGeometry x="-190" y="585" width="160" height="86" as="geometry" />
        </mxCell>
        <mxCell id="TOIAnvdH4Xo8za-mBCzt-37" value="- dorsal : int" style="text;strokeColor=none;fillColor=none;align=left;verticalAlign=top;spacingLeft=4;spacingRight=4;overflow=hidden;rotatable=0;points=[[0,0.5],[1,0.5]];portConstraint=eastwest;whiteSpace=wrap;html=1;" vertex="1" parent="TOIAnvdH4Xo8za-mBCzt-32">
          <mxGeometry y="26" width="160" height="26" as="geometry" />
        </mxCell>
        <mxCell id="TOIAnvdH4Xo8za-mBCzt-34" value="" style="line;strokeWidth=1;fillColor=none;align=left;verticalAlign=middle;spacingTop=-1;spacingLeft=3;spacingRight=3;rotatable=0;labelPosition=right;points=[];portConstraint=eastwest;strokeColor=inherit;" vertex="1" parent="TOIAnvdH4Xo8za-mBCzt-32">
          <mxGeometry y="52" width="160" height="8" as="geometry" />
        </mxCell>
        <mxCell id="TOIAnvdH4Xo8za-mBCzt-35" value="+ presentar () : string" style="text;strokeColor=none;fillColor=none;align=left;verticalAlign=top;spacingLeft=4;spacingRight=4;overflow=hidden;rotatable=0;points=[[0,0.5],[1,0.5]];portConstraint=eastwest;whiteSpace=wrap;html=1;" vertex="1" parent="TOIAnvdH4Xo8za-mBCzt-32">
          <mxGeometry y="60" width="160" height="26" as="geometry" />
        </mxCell>
        <mxCell id="TOIAnvdH4Xo8za-mBCzt-84" style="edgeStyle=orthogonalEdgeStyle;rounded=0;orthogonalLoop=1;jettySize=auto;html=1;exitX=0.25;exitY=0;exitDx=0;exitDy=0;endArrow=none;endFill=0;" edge="1" parent="1" source="TOIAnvdH4Xo8za-mBCzt-39">
          <mxGeometry relative="1" as="geometry">
            <mxPoint x="-70" y="450" as="targetPoint" />
            <Array as="points">
              <mxPoint x="110" y="450" />
            </Array>
          </mxGeometry>
        </mxCell>
        <mxCell id="TOIAnvdH4Xo8za-mBCzt-39" value="Entrenador" style="swimlane;fontStyle=1;align=center;verticalAlign=top;childLayout=stackLayout;horizontal=1;startSize=26;horizontalStack=0;resizeParent=1;resizeParentMax=0;resizeLast=0;collapsible=1;marginBottom=0;whiteSpace=wrap;html=1;" vertex="1" parent="1">
          <mxGeometry x="70" y="585" width="160" height="86" as="geometry" />
        </mxCell>
        <mxCell id="TOIAnvdH4Xo8za-mBCzt-48" value="- tactica" style="text;strokeColor=none;fillColor=none;align=left;verticalAlign=top;spacingLeft=4;spacingRight=4;overflow=hidden;rotatable=0;points=[[0,0.5],[1,0.5]];portConstraint=eastwest;whiteSpace=wrap;html=1;" vertex="1" parent="TOIAnvdH4Xo8za-mBCzt-39">
          <mxGeometry y="26" width="160" height="26" as="geometry" />
        </mxCell>
        <mxCell id="TOIAnvdH4Xo8za-mBCzt-41" value="" style="line;strokeWidth=1;fillColor=none;align=left;verticalAlign=middle;spacingTop=-1;spacingLeft=3;spacingRight=3;rotatable=0;labelPosition=right;points=[];portConstraint=eastwest;strokeColor=inherit;" vertex="1" parent="TOIAnvdH4Xo8za-mBCzt-39">
          <mxGeometry y="52" width="160" height="8" as="geometry" />
        </mxCell>
        <mxCell id="TOIAnvdH4Xo8za-mBCzt-42" value="+ presentar () : string" style="text;strokeColor=none;fillColor=none;align=left;verticalAlign=top;spacingLeft=4;spacingRight=4;overflow=hidden;rotatable=0;points=[[0,0.5],[1,0.5]];portConstraint=eastwest;whiteSpace=wrap;html=1;" vertex="1" parent="TOIAnvdH4Xo8za-mBCzt-39">
          <mxGeometry y="60" width="160" height="26" as="geometry" />
        </mxCell>
        <mxCell id="TOIAnvdH4Xo8za-mBCzt-43" value="abstract Persona" style="swimlane;fontStyle=1;align=center;verticalAlign=top;childLayout=stackLayout;horizontal=1;startSize=26;horizontalStack=0;resizeParent=1;resizeParentMax=0;resizeLast=0;collapsible=1;marginBottom=0;whiteSpace=wrap;html=1;" vertex="1" parent="1">
          <mxGeometry x="-240" y="238" width="160" height="112" as="geometry" />
        </mxCell>
        <mxCell id="TOIAnvdH4Xo8za-mBCzt-44" value="- nombre : string" style="text;strokeColor=none;fillColor=none;align=left;verticalAlign=top;spacingLeft=4;spacingRight=4;overflow=hidden;rotatable=0;points=[[0,0.5],[1,0.5]];portConstraint=eastwest;whiteSpace=wrap;html=1;" vertex="1" parent="TOIAnvdH4Xo8za-mBCzt-43">
          <mxGeometry y="26" width="160" height="26" as="geometry" />
        </mxCell>
        <mxCell id="TOIAnvdH4Xo8za-mBCzt-47" value="- apellido : string" style="text;strokeColor=none;fillColor=none;align=left;verticalAlign=top;spacingLeft=4;spacingRight=4;overflow=hidden;rotatable=0;points=[[0,0.5],[1,0.5]];portConstraint=eastwest;whiteSpace=wrap;html=1;" vertex="1" parent="TOIAnvdH4Xo8za-mBCzt-43">
          <mxGeometry y="52" width="160" height="26" as="geometry" />
        </mxCell>
        <mxCell id="TOIAnvdH4Xo8za-mBCzt-45" value="" style="line;strokeWidth=1;fillColor=none;align=left;verticalAlign=middle;spacingTop=-1;spacingLeft=3;spacingRight=3;rotatable=0;labelPosition=right;points=[];portConstraint=eastwest;strokeColor=inherit;" vertex="1" parent="TOIAnvdH4Xo8za-mBCzt-43">
          <mxGeometry y="78" width="160" height="8" as="geometry" />
        </mxCell>
        <mxCell id="TOIAnvdH4Xo8za-mBCzt-46" value="+ presentar () :&amp;nbsp; string" style="text;strokeColor=none;fillColor=none;align=left;verticalAlign=top;spacingLeft=4;spacingRight=4;overflow=hidden;rotatable=0;points=[[0,0.5],[1,0.5]];portConstraint=eastwest;whiteSpace=wrap;html=1;" vertex="1" parent="TOIAnvdH4Xo8za-mBCzt-43">
          <mxGeometry y="86" width="160" height="26" as="geometry" />
        </mxCell>
        <mxCell id="TOIAnvdH4Xo8za-mBCzt-49" value="enum Tactica" style="swimlane;fontStyle=0;childLayout=stackLayout;horizontal=1;startSize=26;fillColor=none;horizontalStack=0;resizeParent=1;resizeParentMax=0;resizeLast=0;collapsible=1;marginBottom=0;whiteSpace=wrap;html=1;" vertex="1" parent="1">
          <mxGeometry x="80" y="740" width="140" height="104" as="geometry" />
        </mxCell>
        <mxCell id="TOIAnvdH4Xo8za-mBCzt-50" value="- OFENSIVA" style="text;strokeColor=none;fillColor=none;align=left;verticalAlign=top;spacingLeft=4;spacingRight=4;overflow=hidden;rotatable=0;points=[[0,0.5],[1,0.5]];portConstraint=eastwest;whiteSpace=wrap;html=1;" vertex="1" parent="TOIAnvdH4Xo8za-mBCzt-49">
          <mxGeometry y="26" width="140" height="26" as="geometry" />
        </mxCell>
        <mxCell id="TOIAnvdH4Xo8za-mBCzt-51" value="- EQUILIBRADA" style="text;strokeColor=none;fillColor=none;align=left;verticalAlign=top;spacingLeft=4;spacingRight=4;overflow=hidden;rotatable=0;points=[[0,0.5],[1,0.5]];portConstraint=eastwest;whiteSpace=wrap;html=1;" vertex="1" parent="TOIAnvdH4Xo8za-mBCzt-49">
          <mxGeometry y="52" width="140" height="26" as="geometry" />
        </mxCell>
        <mxCell id="TOIAnvdH4Xo8za-mBCzt-52" value="- DEFENSIVA" style="text;strokeColor=none;fillColor=none;align=left;verticalAlign=top;spacingLeft=4;spacingRight=4;overflow=hidden;rotatable=0;points=[[0,0.5],[1,0.5]];portConstraint=eastwest;whiteSpace=wrap;html=1;" vertex="1" parent="TOIAnvdH4Xo8za-mBCzt-49">
          <mxGeometry y="78" width="140" height="26" as="geometry" />
        </mxCell>
        <mxCell id="TOIAnvdH4Xo8za-mBCzt-83" style="edgeStyle=orthogonalEdgeStyle;rounded=0;orthogonalLoop=1;jettySize=auto;html=1;endArrow=none;endFill=0;" edge="1" parent="1" source="TOIAnvdH4Xo8za-mBCzt-53">
          <mxGeometry relative="1" as="geometry">
            <mxPoint x="-170" y="450" as="targetPoint" />
            <Array as="points">
              <mxPoint x="-330" y="450" />
            </Array>
          </mxGeometry>
        </mxCell>
        <mxCell id="TOIAnvdH4Xo8za-mBCzt-53" value="Empleado" style="swimlane;fontStyle=1;align=center;verticalAlign=top;childLayout=stackLayout;horizontal=1;startSize=26;horizontalStack=0;resizeParent=1;resizeParentMax=0;resizeLast=0;collapsible=1;marginBottom=0;whiteSpace=wrap;html=1;" vertex="1" parent="1">
          <mxGeometry x="-410" y="585" width="160" height="86" as="geometry" />
        </mxCell>
        <mxCell id="TOIAnvdH4Xo8za-mBCzt-54" value="- funcion : string" style="text;strokeColor=none;fillColor=none;align=left;verticalAlign=top;spacingLeft=4;spacingRight=4;overflow=hidden;rotatable=0;points=[[0,0.5],[1,0.5]];portConstraint=eastwest;whiteSpace=wrap;html=1;" vertex="1" parent="TOIAnvdH4Xo8za-mBCzt-53">
          <mxGeometry y="26" width="160" height="26" as="geometry" />
        </mxCell>
        <mxCell id="TOIAnvdH4Xo8za-mBCzt-55" value="" style="line;strokeWidth=1;fillColor=none;align=left;verticalAlign=middle;spacingTop=-1;spacingLeft=3;spacingRight=3;rotatable=0;labelPosition=right;points=[];portConstraint=eastwest;strokeColor=inherit;" vertex="1" parent="TOIAnvdH4Xo8za-mBCzt-53">
          <mxGeometry y="52" width="160" height="8" as="geometry" />
        </mxCell>
        <mxCell id="TOIAnvdH4Xo8za-mBCzt-56" value="+ presentar () : string" style="text;strokeColor=none;fillColor=none;align=left;verticalAlign=top;spacingLeft=4;spacingRight=4;overflow=hidden;rotatable=0;points=[[0,0.5],[1,0.5]];portConstraint=eastwest;whiteSpace=wrap;html=1;" vertex="1" parent="TOIAnvdH4Xo8za-mBCzt-53">
          <mxGeometry y="60" width="160" height="26" as="geometry" />
        </mxCell>
        <mxCell id="TOIAnvdH4Xo8za-mBCzt-62" value="-direccion" style="endArrow=block;endFill=1;html=1;edgeStyle=orthogonalEdgeStyle;align=left;verticalAlign=top;rounded=0;entryX=1.021;entryY=1.09;entryDx=0;entryDy=0;entryPerimeter=0;exitX=0;exitY=0.5;exitDx=0;exitDy=0;" edge="1" parent="1" target="TOIAnvdH4Xo8za-mBCzt-16">
          <mxGeometry x="0.2784" y="-24" relative="1" as="geometry">
            <mxPoint x="360" y="155" as="sourcePoint" />
            <mxPoint x="440" y="160" as="targetPoint" />
            <Array as="points">
              <mxPoint x="361" y="155" />
              <mxPoint x="361" y="154" />
              <mxPoint x="295" y="154" />
            </Array>
            <mxPoint as="offset" />
          </mxGeometry>
        </mxCell>
        <mxCell id="TOIAnvdH4Xo8za-mBCzt-63" value="1" style="edgeLabel;resizable=0;html=1;align=left;verticalAlign=bottom;" connectable="0" vertex="1" parent="TOIAnvdH4Xo8za-mBCzt-62">
          <mxGeometry x="-1" relative="1" as="geometry">
            <mxPoint x="-120" y="-13" as="offset" />
          </mxGeometry>
        </mxCell>
        <mxCell id="TOIAnvdH4Xo8za-mBCzt-64" value="-equipo" style="endArrow=block;endFill=1;html=1;edgeStyle=orthogonalEdgeStyle;align=left;verticalAlign=top;rounded=0;exitX=0;exitY=0.5;exitDx=0;exitDy=0;entryX=1;entryY=0.5;entryDx=0;entryDy=0;" edge="1" parent="1" target="TOIAnvdH4Xo8za-mBCzt-27">
          <mxGeometry x="-0.6013" y="-1" relative="1" as="geometry">
            <mxPoint x="360" y="181" as="sourcePoint" />
            <mxPoint x="470" y="360" as="targetPoint" />
            <mxPoint as="offset" />
          </mxGeometry>
        </mxCell>
        <mxCell id="TOIAnvdH4Xo8za-mBCzt-65" value="*" style="edgeLabel;resizable=0;html=1;align=left;verticalAlign=bottom;" connectable="0" vertex="1" parent="TOIAnvdH4Xo8za-mBCzt-64">
          <mxGeometry x="-1" relative="1" as="geometry">
            <mxPoint x="-120" y="154" as="offset" />
          </mxGeometry>
        </mxCell>
        <mxCell id="TOIAnvdH4Xo8za-mBCzt-66" value="-categoria" style="endArrow=block;endFill=1;html=1;edgeStyle=orthogonalEdgeStyle;align=left;verticalAlign=top;rounded=0;entryX=1;entryY=0.5;entryDx=0;entryDy=0;exitX=0;exitY=1.066;exitDx=0;exitDy=0;exitPerimeter=0;" edge="1" parent="1" target="TOIAnvdH4Xo8za-mBCzt-21">
          <mxGeometry x="-0.3184" relative="1" as="geometry">
            <mxPoint x="70" y="336.856" as="sourcePoint" />
            <mxPoint x="-70" y="338.64" as="targetPoint" />
            <Array as="points">
              <mxPoint x="70" y="339" />
              <mxPoint x="-10" y="339" />
              <mxPoint x="-10" y="165" />
            </Array>
            <mxPoint as="offset" />
          </mxGeometry>
        </mxCell>
        <mxCell id="TOIAnvdH4Xo8za-mBCzt-67" value="1" style="edgeLabel;resizable=0;html=1;align=left;verticalAlign=bottom;" connectable="0" vertex="1" parent="TOIAnvdH4Xo8za-mBCzt-66">
          <mxGeometry x="-1" relative="1" as="geometry">
            <mxPoint x="-140" y="-182" as="offset" />
          </mxGeometry>
        </mxCell>
        <mxCell id="TOIAnvdH4Xo8za-mBCzt-71" value="-tactica" style="endArrow=block;endFill=1;html=1;edgeStyle=orthogonalEdgeStyle;align=left;verticalAlign=top;rounded=0;exitX=0.538;exitY=1.04;exitDx=0;exitDy=0;exitPerimeter=0;entryX=0.545;entryY=-0.002;entryDx=0;entryDy=0;entryPerimeter=0;" edge="1" parent="1" source="TOIAnvdH4Xo8za-mBCzt-42" target="TOIAnvdH4Xo8za-mBCzt-49">
          <mxGeometry x="-0.7656" y="4" relative="1" as="geometry">
            <mxPoint x="200" y="700" as="sourcePoint" />
            <mxPoint x="360" y="700" as="targetPoint" />
            <mxPoint as="offset" />
          </mxGeometry>
        </mxCell>
        <mxCell id="TOIAnvdH4Xo8za-mBCzt-72" value="1" style="edgeLabel;resizable=0;html=1;align=left;verticalAlign=bottom;" connectable="0" vertex="1" parent="TOIAnvdH4Xo8za-mBCzt-71">
          <mxGeometry x="-1" relative="1" as="geometry">
            <mxPoint x="4" y="68" as="offset" />
          </mxGeometry>
        </mxCell>
        <mxCell id="TOIAnvdH4Xo8za-mBCzt-73" value="-entrenador" style="endArrow=block;endFill=1;html=1;edgeStyle=orthogonalEdgeStyle;align=left;verticalAlign=top;rounded=0;exitX=0.496;exitY=1.027;exitDx=0;exitDy=0;exitPerimeter=0;" edge="1" parent="1" source="TOIAnvdH4Xo8za-mBCzt-58" target="TOIAnvdH4Xo8za-mBCzt-39">
          <mxGeometry x="-0.2017" y="10" relative="1" as="geometry">
            <mxPoint x="150" y="410" as="sourcePoint" />
            <mxPoint x="350" y="490" as="targetPoint" />
            <mxPoint as="offset" />
          </mxGeometry>
        </mxCell>
        <mxCell id="TOIAnvdH4Xo8za-mBCzt-74" value="1" style="edgeLabel;resizable=0;html=1;align=left;verticalAlign=bottom;" connectable="0" vertex="1" parent="TOIAnvdH4Xo8za-mBCzt-73">
          <mxGeometry x="-1" relative="1" as="geometry">
            <mxPoint x="20" y="197" as="offset" />
          </mxGeometry>
        </mxCell>
        <mxCell id="TOIAnvdH4Xo8za-mBCzt-88" value="-listaEmpleados" style="endArrow=block;endFill=1;html=1;edgeStyle=orthogonalEdgeStyle;align=left;verticalAlign=top;rounded=0;entryX=0.5;entryY=0.962;entryDx=0;entryDy=0;entryPerimeter=0;exitX=0.573;exitY=1.038;exitDx=0;exitDy=0;exitPerimeter=0;" edge="1" parent="1" source="TOIAnvdH4Xo8za-mBCzt-61" target="TOIAnvdH4Xo8za-mBCzt-56">
          <mxGeometry x="-0.9725" y="10" relative="1" as="geometry">
            <mxPoint x="510" y="290" as="sourcePoint" />
            <mxPoint x="-200" y="770" as="targetPoint" />
            <Array as="points">
              <mxPoint x="510" y="287" />
              <mxPoint x="510" y="930" />
              <mxPoint x="-330" y="930" />
            </Array>
            <mxPoint as="offset" />
          </mxGeometry>
        </mxCell>
        <mxCell id="TOIAnvdH4Xo8za-mBCzt-89" value="*" style="edgeLabel;resizable=0;html=1;align=left;verticalAlign=bottom;" connectable="0" vertex="1" parent="TOIAnvdH4Xo8za-mBCzt-88">
          <mxGeometry x="-1" relative="1" as="geometry">
            <mxPoint x="-829" y="403" as="offset" />
          </mxGeometry>
        </mxCell>
        <mxCell id="TOIAnvdH4Xo8za-mBCzt-90" value="-listaJugadores" style="endArrow=block;endFill=1;html=1;edgeStyle=orthogonalEdgeStyle;align=left;verticalAlign=top;rounded=0;entryX=0.438;entryY=1.038;entryDx=0;entryDy=0;entryPerimeter=0;" edge="1" parent="1" target="TOIAnvdH4Xo8za-mBCzt-35">
          <mxGeometry x="-0.8924" y="21" relative="1" as="geometry">
            <mxPoint x="230" y="360" as="sourcePoint" />
            <mxPoint x="-120" y="870" as="targetPoint" />
            <Array as="points">
              <mxPoint x="230" y="361" />
              <mxPoint x="361" y="361" />
              <mxPoint x="361" y="870" />
              <mxPoint x="-120" y="870" />
            </Array>
            <mxPoint as="offset" />
          </mxGeometry>
        </mxCell>
        <mxCell id="TOIAnvdH4Xo8za-mBCzt-91" value="&lt;font style=&quot;font-size: 13px;&quot;&gt;*&lt;/font&gt;" style="edgeLabel;resizable=0;html=1;align=left;verticalAlign=bottom;" connectable="0" vertex="1" parent="TOIAnvdH4Xo8za-mBCzt-90">
          <mxGeometry x="-1" relative="1" as="geometry">
            <mxPoint x="-340" y="340" as="offset" />
          </mxGeometry>
        </mxCell>
      </root>
    </mxGraphModel>
  </diagram>
</mxfile>
